<svg version="1.0" xmlns="http://www.w3.org/2000/svg" width="256.000000ptpx" height="256.000000ptpx" viewBox="0 0 256.000000 256.000000" preserveAspectRatio="xMidYMid meet" transform="rotate(0) scale(1, 1)">

<g transform="translate(0.000000,256.000000) scale(0.100000,-0.100000)" fill="#ffffff" stroke="none">
<path d="M766 2317 c-42 -63 -65 -195 -48 -278 8 -40 5 -55 -14 -102 -34 -79&#10;-46 -169 -33 -246 5 -36 13 -69 17 -75 3 -6 7 -88 7 -181 l0 -170 33 -67 c39&#10;-80 101 -138 181 -169 105 -42 402 -34 457 12 32 27 16 48 -73 93 -201 101&#10;-390 253 -473 380 -70 106 -96 232 -69 330 l11 39 31 -61 c68 -131 215 -298&#10;377 -429 111 -89 325 -233 347 -233 22 0 43 18 43 37 0 7 -54 49 -119 93 -360&#10;241 -578 482 -637 705 -20 75 -16 235 6 235 3 0 208 -210 454 -467 246 -258&#10;458 -476 470 -486 26 -21 52 -14 62 15 4 15 -5 31 -37 64 -41 41 -42 44 -26&#10;67 9 13 37 39 64 56 138 92 328 78 450 -33 45 -40 98 -132 108 -188 l7 -38&#10;-58 0 c-104 0 -144 -44 -144 -159 0 -115 -72 -292 -163 -399 -135 -160 -308&#10;-242 -514 -242 -161 0 -261 33 -415 136 -168 113 -186 115 -476 40 l-209 -54&#10;-126 137 -126 136 385 5 c327 4 386 7 394 20 13 21 12 26 -6 44 -14 14 -68 16&#10;-443 16 -448 0 -468 -2 -460 -44 5 -23 578 -636 595 -636 7 0 110 59 229 130&#10;l216 130 59 -34 c185 -109 410 -133 609 -67 288 97 485 342 524 653 l13 103&#10;144 3 c147 3 170 9 170 43 0 24 -30 39 -79 39 -36 0 -41 3 -47 28 -33 152&#10;-114 261 -239 323 -162 79 -350 54 -483 -66 l-50 -45 -124 127 c-69 71 -259&#10;269 -424 440 -166 173 -307 313 -316 313 -10 0 -24 -10 -32 -23z m279 -1123&#10;c50 -34 109 -71 133 -85 53 -29 40 -37 -60 -38 -224 -3 -339 95 -355 301 l-6&#10;82 99 -100 c55 -55 139 -127 189 -160z m-112 -641 c20 -9 37 -19 37 -22 0 -3&#10;-82 -55 -182 -115 l-182 -109 -78 82 c-44 46 -76 86 -73 90 4 3 88 27 188 53&#10;191 50 218 52 290 21z"/>
<path d="M2016 1364 c-9 -8 -16 -28 -16 -44 0 -16 7 -36 16 -44 18 -19 20 -19&#10;45 -6 14 8 19 21 19 50 0 29 -5 42 -19 50 -25 13 -27 13 -45 -6z"/>
</g>
</svg>