<svg version="1.0" xmlns="http://www.w3.org/2000/svg" width="512.000000ptpx" height="512.000000ptpx" viewBox="0 0 512.000000 512.000000" preserveAspectRatio="xMidYMid meet" transform="rotate(0) scale(1, 1)">

<g transform="translate(0.000000,512.000000) scale(0.100000,-0.100000)" fill="#ffffff" stroke="none">
<path d="M2420 4814 c-248 -32 -470 -112 -665 -242 -373 -247 -607 -637 -655&#10;-1092 -33 -316 56 -679 232 -942 52 -77 51 -78 -58 -78 -85 0 -233 -27 -339&#10;-62 -393 -127 -704 -427 -852 -818 -73 -191 -104 -496 -69 -669 61 -301 291&#10;-534 588 -595 69 -14 277 -16 1958 -16 2033 0 1947 -2 2084 51 172 68 333 223&#10;412 398 50 111 59 164 59 356 0 152 -4 196 -23 284 -108 486 -441 855 -909&#10;1010 -105 35 -252 61 -343 61 -37 0 -69 2 -72 5 -3 3 15 36 39 73 177 263 266&#10;626 233 942 -54 516 -357 957 -815 1185 -205 101 -379 144 -615 149 -85 3&#10;-171 2 -190 0z m426 -328 c400 -99 716 -393 843 -785 41 -125 55 -219 55 -366&#10;-1 -306 -114 -583 -330 -812 l-50 -53 -792 0 -793 0 -48 48 c-114 115 -230&#10;303 -279 459 -78 239 -76 522 5 746 152 423 506 717 950 787 104 16 326 4 439&#10;-24z m-1326 -2558 c0 -211 -2 -248 -18 -278 -53 -107 -211 -107 -264 0 -16 30&#10;-18 66 -18 272 l0 237 68 4 c37 2 104 4 150 5 l82 2 0 -242z m600 -11 c0 -275&#10;7 -327 57 -419 30 -55 101 -130 155 -164 74 -47 154 -66 258 -62 84 3 104 8&#10;170 39 85 41 162 112 203 187 50 92 57 144 57 419 l0 253 150 0 150 0 0 -253&#10;c0 -275 7 -327 57 -419 30 -55 101 -130 155 -164 74 -47 154 -66 258 -62 84 3&#10;104 8 170 39 85 41 162 112 203 187 48 87 57 148 57 364 0 109 4 198 8 198 25&#10;0 185 -114 261 -185 205 -196 314 -435 328 -722 7 -143 -5 -220 -49 -306 -59&#10;-117 -179 -209 -306 -236 -76 -16 -3730 -16 -3804 0 -86 19 -158 59 -223 124&#10;-108 107 -142 216 -132 418 18 377 218 700 548 885 31 18 59 32 63 32 3 0 6&#10;-91 6 -203 0 -274 23 -355 129 -463 98 -100 197 -138 341 -132 84 3 104 8 170&#10;39 85 41 162 112 203 187 50 92 57 144 57 419 l0 253 150 0 150 0 0 -253z&#10;m600 11 c0 -211 -2 -248 -18 -278 -53 -107 -211 -107 -264 0 -16 30 -18 67&#10;-18 278 l0 242 150 0 150 0 0 -242z m1193 225 c4 -2 7 -109 7 -236 0 -201 -2&#10;-237 -18 -267 -53 -107 -211 -107 -264 0 -16 30 -18 67 -18 279 l0 244 143 -8&#10;c78 -4 145 -9 150 -12z"/>
<path d="M2420 3735 l0 -145 -120 0 -120 0 0 -150 0 -150 120 0 120 0 0 -240&#10;0 -240 150 0 150 0 0 240 0 240 120 0 120 0 0 150 0 150 -120 0 -120 0 0 145&#10;0 145 -150 0 -150 0 0 -145z"/>
</g>
</svg>